<?xml version="1.0" standalone="no"?>
<!DOCTYPE svg PUBLIC "-//W3C//DTD SVG 20010904//EN"
 "http://www.w3.org/TR/2001/REC-SVG-20010904/DTD/svg10.dtd">
<svg version="1.0" xmlns="http://www.w3.org/2000/svg"
 width="1030.000000pt" height="1030.000000pt" viewBox="0 0 1030.000000 1030.000000"
 preserveAspectRatio="xMidYMid meet">

<g transform="translate(0.000000,1030.000000) scale(0.100000,-0.100000)"
fill="#C89B3C" stroke="none">
<path d="M260 6190 l0 -3920 4900 0 4900 0 0 3920 0 3920 -4900 0 -4900 0 0
-3920z m3860 3263 c69 -19 139 -54 215 -108 76 -54 105 -85 149 -159 52 -87
55 -126 16 -243 -32 -97 -32 -99 -25 -238 l6 -141 -48 -40 c-47 -41 -82 -98
-147 -247 l-26 -59 -141 4 -142 3 -69 -155 c-83 -186 -184 -454 -228 -605 -39
-134 -80 -324 -71 -329 3 -2 40 -7 81 -11 76 -7 548 -70 912 -121 l198 -28 13
-41 c13 -37 17 -40 63 -47 204 -32 464 -103 629 -172 73 -31 91 -35 216 -40
75 -4 162 -13 194 -21 52 -14 60 -14 75 0 16 15 28 12 146 -31 71 -25 260
-102 419 -171 448 -193 544 -226 870 -297 194 -42 371 -63 610 -72 99 -3 197
-10 218 -15 45 -12 74 -38 83 -75 6 -23 1 -33 -27 -58 -18 -16 -34 -37 -34
-45 0 -8 -15 -23 -33 -34 -26 -15 -35 -17 -47 -7 -20 16 -45 5 -45 -19 0 -28
-57 -58 -81 -43 -14 9 -57 -7 -218 -80 -168 -77 -200 -95 -195 -110 8 -26 -59
-57 -86 -40 -26 16 -50 5 -50 -25 0 -18 -9 -28 -37 -39 -33 -14 -38 -14 -49 0
-9 13 -17 14 -43 5 -44 -15 -93 -4 -124 29 -33 35 -43 62 -57 160 -7 45 -18
88 -24 97 -15 21 -101 39 -276 59 -98 12 -231 16 -481 16 -448 0 -528 12 -666
96 -145 90 -131 87 -473 95 -168 4 -367 10 -442 12 l-138 3 -11 -34 -12 -35
-648 6 c-357 3 -647 2 -645 -1 2 -4 44 -27 93 -51 l89 -43 29 -267 c37 -338
37 -313 -3 -323 -32 -9 -33 -11 -28 -46 16 -107 29 -355 30 -572 l1 -245 -30
-54 c-16 -29 -48 -69 -70 -88 -44 -38 -169 -115 -255 -158 -68 -34 -64 -29
-50 -55 10 -19 6 -23 -72 -60 -134 -62 -340 -143 -703 -275 -187 -68 -403
-150 -480 -181 -409 -169 -660 -347 -811 -575 -40 -61 -72 -99 -86 -102 -33
-9 -69 2 -101 31 -25 23 -27 32 -27 98 0 55 -4 73 -15 78 -26 10 -17 96 10 96
17 0 30 97 15 115 -14 17 12 85 33 85 8 0 27 21 44 48 16 26 57 80 91 119 77
92 85 107 87 166 1 40 6 52 34 78 26 23 32 35 27 54 -9 34 19 85 45 85 11 0
33 10 49 22 45 33 101 28 190 -18 66 -34 84 -39 162 -42 83 -4 92 -3 151 26
44 22 112 78 237 192 389 358 580 494 747 531 42 10 53 16 49 28 -2 9 -25 64
-50 123 -53 127 -128 341 -146 418 -14 58 -23 70 -56 70 -37 0 -55 24 -80 110
-120 405 -205 1027 -176 1280 5 41 8 76 7 78 -2 2 -17 -3 -33 -12 -37 -19 -42
-11 -42 75 0 302 147 1064 253 1308 l32 73 120 48 120 48 -75 6 c-41 4 -191
15 -332 26 l-258 20 -357 -306 c-197 -169 -366 -316 -375 -327 -9 -12 -27 -52
-40 -90 -24 -73 -50 -101 -166 -180 -103 -70 -283 -106 -352 -70 -61 32 -53
52 52 130 136 102 157 134 55 88 -30 -14 -78 -28 -105 -32 -45 -5 -51 -3 -62
17 -13 25 0 70 21 70 6 0 48 17 93 38 67 32 92 50 140 106 73 83 100 102 163
119 49 12 53 16 208 212 191 243 420 516 506 607 69 72 104 88 191 88 46 0 46
0 53 40 5 30 12 41 28 45 12 3 114 12 227 20 240 17 590 20 746 4 94 -9 144
-17 275 -45 26 -6 26 -4 33 58 11 108 27 170 61 245 98 213 325 312 565 246z
m5000 -2150 c193 -53 343 -217 386 -423 56 -268 -116 -546 -388 -625 -68 -19
-203 -22 -273 -4 -90 22 -174 69 -245 135 -176 166 -220 421 -112 642 31 64
115 159 180 204 126 87 297 114 452 71z"/>
<path d="M6000 1378 c-223 -17 -325 -120 -324 -328 0 -102 15 -150 60 -200 45
-50 102 -73 264 -105 189 -38 210 -52 210 -135 0 -57 -39 -96 -105 -106 -70
-10 -227 2 -323 26 -46 11 -85 20 -88 20 -3 0 -3 -46 -2 -102 l3 -103 65 -17
c155 -42 398 -41 515 3 80 30 148 98 169 170 21 68 21 203 1 260 -34 95 -84
124 -306 174 -202 47 -213 54 -211 133 1 93 85 126 266 104 50 -7 121 -20 159
-31 l67 -18 0 103 0 102 -32 11 c-118 37 -250 50 -388 39z"/>
<path d="M8332 1365 c-244 -53 -352 -214 -352 -524 0 -143 17 -240 57 -320 78
-161 264 -241 528 -228 104 5 237 27 291 47 l24 10 0 285 0 285 -205 0 -205 0
0 -90 0 -90 95 0 95 0 0 -119 0 -120 -56 -7 c-76 -9 -175 1 -227 24 -96 43
-130 128 -129 322 1 233 52 310 220 330 95 12 286 -11 377 -46 13 -5 15 9 15
99 l0 104 -57 16 c-145 40 -346 49 -471 22z"/>
<path d="M240 834 l0 -525 343 3 c304 3 346 5 382 21 61 27 113 84 130 141 21
70 19 191 -4 241 -31 69 -67 92 -206 129 -5 2 14 10 43 18 70 21 116 54 144
103 18 32 23 55 23 120 0 102 -22 163 -76 209 -70 60 -115 66 -467 66 l-312 0
0 -526z m549 331 c38 -19 54 -63 49 -131 -4 -43 -11 -61 -32 -82 -26 -26 -30
-27 -171 -30 l-145 -4 0 131 0 131 135 0 c99 0 144 -4 164 -15z m6 -419 c18
-8 38 -24 44 -35 18 -34 24 -104 12 -149 -18 -64 -41 -72 -216 -72 l-145 0 0
128 c0 71 3 132 7 135 13 14 262 8 298 -7z"/>
<path d="M1292 943 l3 -418 27 -51 c66 -124 205 -184 428 -183 222 0 363 66
424 198 20 44 21 64 24 459 l3 412 -130 0 -130 0 -3 -384 c-3 -372 -4 -385
-24 -413 -35 -47 -69 -58 -174 -58 -76 0 -101 4 -127 20 -62 37 -63 43 -63
459 l0 376 -130 0 -131 0 3 -417z"/>
<path d="M2420 835 l0 -525 125 0 125 0 2 374 3 375 220 -375 219 -374 163 0
163 0 0 525 0 525 -125 0 -125 0 -2 -374 -3 -375 -220 375 -219 374 -163 0
-163 0 0 -525z"/>
<path d="M3650 835 l0 -525 283 0 c157 0 309 5 341 11 161 29 247 112 293 279
25 91 25 387 0 477 -44 165 -116 235 -273 268 -51 11 -143 15 -356 15 l-288 0
0 -525z m539 315 c49 -14 88 -55 108 -114 25 -72 25 -317 1 -396 -18 -59 -55
-102 -101 -119 -16 -6 -87 -11 -158 -11 l-129 0 0 325 0 325 123 0 c67 0 138
-4 156 -10z"/>
<path d="M4780 835 l0 -525 375 0 375 0 0 100 0 100 -242 2 -243 3 -3 113 -3
112 201 0 200 0 0 100 0 100 -200 0 -200 0 0 110 0 110 240 0 240 0 0 100 0
100 -370 0 -370 0 0 -525z"/>
<path d="M6650 835 l0 -525 355 0 355 0 0 100 0 100 -225 0 -225 0 0 425 0
425 -130 0 -130 0 0 -525z"/>
<path d="M7530 835 l0 -525 130 0 130 0 0 525 0 525 -130 0 -130 0 0 -525z"/>
<path d="M9218 948 c-81 -227 -166 -464 -188 -526 l-40 -113 132 3 132 3 35
108 35 107 207 0 207 0 37 -110 37 -110 129 0 c97 0 129 3 128 13 0 6 -82 242
-182 522 l-183 510 -169 3 -170 2 -147 -412z m391 11 c39 -124 71 -229 71
-233 0 -3 -68 -6 -151 -6 -132 0 -150 2 -145 15 3 9 38 115 77 236 39 121 72
219 74 217 1 -2 35 -105 74 -229z"/>
</g>
</svg>
