<?xml version="1.0" standalone="no"?>
<!DOCTYPE svg PUBLIC "-//W3C//DTD SVG 20010904//EN"
 "http://www.w3.org/TR/2001/REC-SVG-20010904/DTD/svg10.dtd">
<svg version="1.0" xmlns="http://www.w3.org/2000/svg"
 width="348.000000pt" height="348.000000pt" viewBox="0 0 348.000000 348.000000"
 preserveAspectRatio="xMidYMid meet">

<g transform="translate(0.000000,348.000000) scale(0.100000,-0.100000)"
fill="#C89B3C" stroke="none">
<path d="M1540 3329 c-98 -26 -258 -105 -341 -168 -116 -88 -295 -300 -272
-322 10 -10 406 -239 413 -239 3 0 13 12 22 28 56 95 175 186 293 223 39 12
71 23 72 24 2 1 -16 107 -40 236 -32 171 -47 235 -58 236 -8 1 -48 -7 -89 -18z"/>
<path d="M1823 3231 c-34 -3 -64 -9 -67 -12 -5 -5 35 -308 59 -445 l5 -31 83
0 c128 2 229 -30 334 -105 l41 -30 35 38 c120 135 277 321 277 329 -1 13 -110
95 -181 134 -163 91 -402 141 -586 122z"/>
<path d="M710 2753 c-60 -143 -82 -252 -83 -403 -1 -138 8 -203 46 -323 18
-59 24 -67 42 -63 11 3 112 41 225 85 134 51 204 84 203 93 -1 7 -8 45 -17 83
-9 39 -16 90 -16 115 0 63 25 170 50 220 12 23 18 46 13 50 -15 13 -409 220
-420 220 -5 0 -25 -35 -43 -77z"/>
<path d="M1603 2541 c-277 -103 -347 -446 -131 -646 78 -72 146 -99 258 -99
75 0 93 4 152 31 89 42 151 100 191 182 30 61 32 72 32 171 0 95 -3 111 -29
163 -36 74 -106 144 -182 181 -79 39 -212 47 -291 17z m7 -41 c-11 -7 -7 -10
16 -10 17 0 45 -5 63 -11 27 -10 31 -16 31 -47 0 -42 10 -37 19 10 6 30 11 34
59 43 42 8 50 13 40 23 -18 18 -3 15 45 -9 55 -29 102 -65 121 -94 13 -20 14
-23 2 -19 -12 5 -14 -2 -9 -33 10 -63 9 -66 -32 -90 -37 -22 -38 -23 -10 -17
17 3 35 7 42 9 15 5 49 -41 58 -78 7 -26 8 -26 21 -10 17 22 17 9 3 -59 -12
-57 -42 -122 -61 -134 -7 -5 -9 -2 -5 8 4 12 -4 10 -36 -8 -55 -31 -65 -30
-99 9 l-29 32 23 -43 23 -44 -42 -39 c-28 -26 -37 -39 -26 -39 14 0 15 -2 4
-12 -8 -9 -44 -13 -106 -13 -91 0 -123 8 -97 24 10 6 7 12 -10 23 -13 8 -29
27 -37 41 -12 23 -11 30 9 64 l23 38 -37 -35 -37 -35 -50 27 c-34 18 -49 22
-45 12 3 -8 2 -14 -3 -14 -14 0 -61 115 -68 166 -6 44 -5 48 9 36 13 -11 17
-9 22 11 3 13 15 35 26 49 18 23 24 25 57 18 51 -12 52 -6 2 14 -41 16 -41 18
-35 56 3 21 9 46 13 56 5 13 3 16 -10 11 -56 -21 47 78 115 112 40 20 68 20
38 1z"/>
<path d="M1653 2287 c-40 -29 -72 -56 -72 -61 -1 -4 11 -46 25 -92 l25 -84 98
0 97 0 27 83 c15 46 27 86 27 90 0 6 -146 118 -152 117 -2 -1 -35 -24 -75 -53z"/>
<path d="M933 1967 c-51 -22 -90 -45 -86 -50 3 -6 1 -7 -5 -3 -6 4 -55 -12
-109 -35 -149 -63 -138 -50 -102 -122 115 -229 339 -427 567 -502 29 -9 55
-15 56 -14 2 2 31 94 65 204 34 110 66 212 71 226 8 26 6 28 -48 48 -105 38
-230 154 -280 259 -9 17 -20 31 -26 31 -6 -1 -52 -19 -103 -42z"/>
<path d="M1845 1594 c-99 -59 -237 -84 -350 -65 -37 7 -69 10 -71 8 -9 -8
-124 -443 -120 -453 9 -23 130 -39 286 -38 127 0 170 4 237 22 125 34 247 88
236 105 -3 6 -1 7 6 3 9 -6 54 14 89 40 9 6 -132 203 -141 197 -6 -3 -7 -1 -3
5 6 10 -112 202 -124 201 -3 -1 -23 -12 -45 -25z"/>
<path d="M1812 827 c-12 -13 -22 -36 -22 -51 0 -29 39 -76 64 -76 30 0 65 23
76 49 30 74 -64 136 -118 78z"/>
<path d="M610 515 l0 -255 145 0 145 0 0 55 0 55 -80 0 -80 0 0 200 0 200 -65
0 -65 0 0 -255z"/>
<path d="M1450 515 l0 -255 145 0 145 0 0 55 0 55 -80 0 -80 0 0 200 0 200
-65 0 -65 0 0 -255z"/>
<path d="M1066 666 c-21 -8 -52 -27 -68 -43 -106 -99 -84 -308 39 -359 49 -21
132 -18 171 6 39 24 42 24 42 5 0 -12 13 -15 60 -15 l60 0 0 205 0 205 -60 0
c-53 0 -60 -2 -60 -20 0 -25 -4 -25 -38 0 -37 26 -98 33 -146 16z m155 -135
c23 -23 29 -38 29 -71 0 -117 -167 -139 -196 -26 -25 100 94 169 167 97z"/>
<path d="M2105 665 c-75 -27 -125 -105 -125 -196 0 -146 135 -242 253 -179 47
25 47 25 47 -5 0 -37 -36 -65 -86 -65 -25 0 -47 6 -54 15 -9 11 -32 15 -82 15
-67 0 -69 -1 -62 -22 23 -77 109 -124 211 -115 83 6 144 42 172 100 19 40 21
61 21 251 l0 207 -57 -3 c-48 -2 -58 -6 -57 -20 2 -22 2 -22 -38 1 -47 28 -96
33 -143 16z m142 -110 c51 -36 46 -131 -8 -169 -57 -40 -139 6 -139 79 0 39
22 90 42 98 27 11 84 6 105 -8z"/>
<path d="M2595 666 c-51 -19 -112 -86 -126 -140 -6 -22 -9 -68 -6 -100 6 -70
43 -129 97 -157 48 -26 135 -25 178 1 39 24 42 24 42 5 0 -12 13 -15 60 -15
l60 0 0 205 0 205 -60 0 c-53 0 -60 -2 -60 -20 0 -25 -4 -25 -38 0 -37 27 -98
33 -147 16z m156 -135 c23 -23 29 -38 29 -71 0 -117 -167 -139 -196 -26 -25
100 94 169 167 97z"/>
<path d="M1800 465 l0 -205 60 0 60 0 0 205 0 205 -60 0 -60 0 0 -205z"/>
</g>
</svg>
