<?xml version="1.0" standalone="no"?>
<!DOCTYPE svg PUBLIC "-//W3C//DTD SVG 20010904//EN" "http://www.w3.org/TR/2001/REC-SVG-20010904/DTD/svg10.dtd">
<svg version="1.0" xmlns="http://www.w3.org/2000/svg" width="451.000000pt" height="451.000000pt"
  viewBox="0 0 451.000000 451.000000" preserveAspectRatio="xMidYMid meet">

  <g transform="translate(0.000000,451.000000) scale(0.100000,-0.100000)" fill="#C89B3C" stroke="none">
    <path d="M2029 4383 c-281 -652 -800 -1875 -798 -1878 2 -1 186 -117 409 -257
223 -140 453 -284 511 -321 59 -37 112 -67 118 -67 8 0 1008 627 1029 645 2 2
-121 293 -273 646 -153 354 -338 787 -413 962 l-136 317 -214 0 -213 0 -20
-47z" />
    <path d="M1275 1692 c-46 -21 -65 -55 -65 -112 0 -59 36 -96 108 -110 86 -18
102 -26 102 -54 0 -57 -61 -72 -138 -34 l-45 21 -24 -27 c-29 -34 -21 -48 44
-70 135 -46 253 6 253 111 0 60 -44 107 -110 117 -78 12 -100 25 -100 57 0 46
38 58 103 35 51 -18 51 -18 69 4 25 30 23 37 -14 56 -49 25 -135 28 -183 6z" />
    <path d="M1580 1495 l0 -205 135 0 135 0 0 40 0 40 -96 0 -95 0 3 48 3 47 78
3 77 3 0 34 0 35 -80 0 -80 0 0 45 0 45 95 0 95 0 0 35 0 35 -135 0 -135 0 0
-205z" />
    <path d="M1932 1498 l3 -203 40 0 40 0 3 78 3 77 30 0 c27 0 33 -6 67 -77 34
-72 39 -78 70 -81 64 -6 66 0 22 88 l-40 80 31 28 c59 53 48 161 -21 197 -21
11 -60 15 -140 15 l-110 0 2 -202z m206 120 c17 -17 15 -64 -4 -82 -10 -10
-33 -16 -65 -16 l-49 0 0 55 0 55 53 0 c29 0 58 -5 65 -12z" />
    <path d="M2320 1495 l0 -205 40 0 40 0 0 205 0 205 -40 0 -40 0 0 -205z" />
    <path d="M2494 1687 c-2 -7 -3 -98 -2 -202 l3 -190 138 -3 137 -3 0 41 0 40
-96 0 -95 0 3 48 3 47 78 3 77 3 0 34 0 35 -80 0 -80 0 0 45 0 45 95 0 95 0 0
35 0 35 -135 0 c-101 0 -137 -3 -141 -13z" />
    <path d="M3099 1673 c-32 -83 -129 -364 -129 -373 0 -7 16 -10 42 -8 37 3 42
6 53 38 l12 35 75 3 c75 3 76 3 83 -25 10 -41 24 -53 60 -53 42 0 46 6 31 43
-7 18 -39 107 -71 200 l-57 167 -44 0 c-39 0 -46 -3 -55 -27z m95 -224 c-3 -5
-23 -9 -45 -9 -31 0 -39 4 -39 19 0 16 17 71 36 121 4 9 16 -12 30 -54 13 -38
21 -73 18 -77z" />
    <path d="M882 808 c4 -285 5 -295 29 -359 38 -98 74 -155 144 -224 67 -66 163
-122 260 -152 56 -17 114 -18 940 -18 708 0 891 3 935 14 200 49 367 204 432
401 19 59 22 92 26 348 l4 282 -1387 0 -1387 0 4 -292z m1773 -203 l0 -280
-65 0 -65 0 -3 270 c-1 148 0 276 3 283 3 9 23 12 67 10 l63 -3 0 -280z m-220
220 l0 -50 -67 -3 -68 -3 -2 -217 -3 -217 -57 -3 -58 -3 -2 218 -3 218 -67 3
-68 3 0 55 0 54 198 -2 197 -3 0 -50z" />
  </g>
</svg>