<?xml version="1.0" standalone="no"?>
<!DOCTYPE svg PUBLIC "-//W3C//DTD SVG 20010904//EN"
 "http://www.w3.org/TR/2001/REC-SVG-20010904/DTD/svg10.dtd">
<svg version="1.0" xmlns="http://www.w3.org/2000/svg"
 width="492.000000pt" height="492.000000pt" viewBox="0 0 492.000000 492.000000"
 preserveAspectRatio="xMidYMid meet">

<g transform="translate(0.000000,492.000000) scale(0.100000,-0.100000)"
fill="#C89B3C" stroke="none">
<path d="M2639 4710 c-63 -71 -119 -129 -125 -129 -6 -1 -46 55 -88 124 -43
69 -81 125 -85 125 -4 0 -27 -59 -52 -131 -24 -73 -48 -137 -54 -144 -8 -10
-44 11 -153 87 -79 55 -146 98 -148 95 -2 -2 5 -62 16 -132 11 -70 18 -130 16
-132 -3 -3 -46 22 -96 56 -50 34 -96 61 -101 61 -6 0 -2 -12 9 -27 27 -39 78
-142 103 -209 11 -30 24 -54 27 -52 224 114 398 159 627 159 122 1 289 -18
339 -37 10 -4 16 15 25 73 7 43 21 109 32 146 11 38 19 71 16 73 -5 5 -72 -59
-119 -115 -21 -25 -40 -43 -42 -40 -3 2 -9 64 -15 138 -6 74 -12 136 -14 137
-2 2 -55 -55 -118 -126z"/>
<path d="M2440 4374 c-14 -2 -59 -9 -100 -15 -91 -14 -218 -49 -296 -84 l-57
-25 44 -23 c43 -22 114 -101 104 -117 -3 -4 -23 1 -45 12 -53 26 -126 27 -168
3 -61 -36 -86 -138 -57 -235 9 -30 19 -66 22 -79 l6 -24 -31 22 c-68 48 -109
162 -91 255 5 27 7 51 4 54 -10 10 -225 -218 -272 -288 -62 -92 -85 -138 -78
-149 3 -5 28 -12 55 -16 27 -4 52 -10 54 -14 3 -4 -16 -36 -41 -72 -86 -122
-184 -365 -199 -495 -8 -66 -17 -64 118 -23 43 12 80 21 83 18 2 -3 0 -32 -5
-65 -13 -79 -13 -313 1 -411 18 -138 67 -293 92 -293 21 0 204 197 277 297 41
57 77 100 81 95 20 -21 41 -140 46 -267 5 -132 0 -198 -33 -397 -7 -38 -6 -38
48 -63 107 -49 202 -68 343 -68 188 0 354 45 510 138 32 19 61 35 66 35 5 0
16 -26 24 -57 29 -103 24 -100 80 -58 113 85 210 196 274 316 56 105 78 164
101 281 12 57 23 105 26 107 2 2 22 -17 45 -42 22 -26 45 -47 50 -47 26 0 69
246 69 397 0 228 -73 464 -213 682 l-34 53 -7 -33 -6 -33 -41 40 c-57 55 -64
71 -44 94 19 20 13 53 -13 83 -20 22 -22 22 -66 -8 l-36 -24 -37 24 c-20 14
-38 23 -40 21 -11 -11 73 -118 132 -166 58 -48 85 -77 85 -93 0 -2 -24 2 -52
10 -58 16 -180 12 -235 -7 -32 -12 -33 -11 -122 82 -97 100 -109 128 -74 177
16 24 16 24 -13 17 -16 -4 -37 -15 -47 -23 -16 -15 -24 -13 -101 25 -88 44
-116 49 -175 31 -40 -12 -112 -58 -118 -75 -2 -6 22 -22 54 -36 45 -20 80 -27
160 -31 l102 -5 53 -46 c57 -49 143 -145 136 -151 -2 -3 -20 0 -39 5 -19 5
-113 11 -209 12 -169 3 -177 4 -232 31 -69 34 -121 92 -138 152 -10 35 -17 45
-34 45 -36 0 -66 12 -66 25 0 16 92 91 138 113 l32 16 -22 23 c-20 22 -21 24
-4 42 43 47 256 137 339 143 38 2 105 -30 215 -104 81 -54 78 -55 96 29 4 18
12 35 17 39 18 11 247 -139 288 -189 28 -35 28 -15 0 66 -16 45 -29 92 -29
103 0 28 -50 72 -134 119 -63 35 -212 92 -220 84 -2 -2 1 -28 7 -56 6 -29 9
-55 6 -58 -3 -2 -28 17 -57 45 -95 91 -119 103 -230 106 -53 1 -108 1 -122 -2z
m538 -883 c15 -10 51 -30 80 -45 l52 -26 0 -79 0 -79 -41 -37 c-61 -55 -183
-131 -239 -150 -91 -30 -96 -26 -173 117 -38 70 -66 132 -62 137 12 21 178
124 243 152 79 34 105 36 140 10z m356 -32 c40 -98 43 -249 7 -341 -14 -37
-25 -35 -50 8 -12 20 -39 57 -61 83 -39 47 -40 48 -40 128 l0 81 57 41 c32 23
61 41 64 41 4 0 14 -19 23 -41z m-97 -438 c23 -44 31 -72 27 -90 -12 -57 -75
-170 -115 -206 -22 -20 -42 -35 -44 -33 -2 2 -8 39 -14 82 -5 42 -12 80 -15
83 -2 3 -18 -4 -35 -16 -34 -25 -131 -71 -148 -71 -12 0 -93 138 -93 159 0 6
6 11 13 11 24 0 152 68 207 109 53 40 57 42 120 39 l65 -3 32 -64z"/>
<path d="M1030 1310 l0 -320 55 0 54 0 3 103 3 102 81 7 c125 10 199 59 224
146 31 113 -10 214 -104 258 -46 21 -65 24 -183 24 l-133 0 0 -320z m259 196
c72 -38 63 -149 -14 -182 -42 -17 -107 -18 -123 -2 -13 13 -17 179 -5 191 12
13 114 7 142 -7z"/>
<path d="M2956 1588 c-46 -65 22 -137 94 -98 35 19 33 88 -4 112 -24 16 -75 8
-90 -14z"/>
<path d="M1925 1409 c-45 -13 -105 -67 -126 -113 -37 -82 -19 -196 41 -256 78
-78 231 -81 324 -6 19 16 19 17 -14 51 -33 34 -33 34 -59 16 -59 -42 -141 -34
-181 16 -11 14 -20 29 -20 34 0 5 71 10 158 11 l157 3 -2 52 c-6 145 -135 234
-278 192z m146 -119 c17 -16 28 -34 24 -40 -3 -6 -48 -10 -100 -10 -52 0 -97
4 -100 10 -4 6 7 24 24 40 24 25 38 30 76 30 38 0 52 -5 76 -30z"/>
<path d="M2440 1413 c-8 -3 -27 -17 -42 -31 l-27 -25 -7 27 c-6 25 -10 27 -53
24 l-46 -3 0 -205 0 -205 52 -3 52 -3 3 145 c3 159 7 170 64 182 21 4 37 0 54
-14 24 -20 25 -25 28 -166 l3 -146 55 0 54 0 0 144 c0 144 0 145 26 165 15 12
34 21 44 21 10 0 29 -9 44 -21 26 -20 26 -21 26 -165 l0 -144 55 0 55 0 0 155
c0 171 -8 206 -55 243 -54 42 -145 41 -187 -3 -26 -28 -43 -32 -51 -12 -12 32
-102 56 -147 40z"/>
<path d="M3262 1407 c-52 -19 -103 -66 -124 -115 -29 -65 -21 -166 16 -223 67
-101 243 -119 351 -36 20 15 19 16 -14 51 l-34 35 -26 -18 c-59 -42 -141 -34
-181 16 -11 14 -20 29 -20 34 0 5 71 10 158 11 l157 3 3 28 c2 15 -4 51 -12
81 -33 112 -160 174 -274 133z m149 -117 c17 -16 28 -34 24 -40 -3 -6 -48 -10
-101 -10 -86 0 -94 2 -94 19 0 32 47 61 97 61 36 0 50 -6 74 -30z"/>
<path d="M1510 1201 l0 -211 55 0 55 0 0 120 c0 133 10 168 55 188 14 7 39 12
55 12 29 0 30 1 30 50 l0 50 -39 0 c-27 0 -49 -8 -69 -25 -37 -31 -40 -31 -44
-2 -3 19 -10 22 -50 25 l-48 3 0 -210z"/>
<path d="M2957 1403 c-4 -3 -7 -98 -7 -210 l0 -203 55 0 55 0 0 210 0 210 -48
0 c-27 0 -52 -3 -55 -7z"/>
<path d="M3604 1397 c-2 -7 -3 -100 -2 -207 l3 -195 52 -3 51 -3 4 131 3 132
33 29 c22 20 43 29 67 29 l35 0 0 50 0 50 -34 0 c-22 0 -45 -9 -65 -26 -33
-27 -51 -25 -51 7 0 16 -7 19 -45 19 -28 0 -48 -5 -51 -13z"/>
<path d="M1030 595 l0 -315 195 0 195 0 0 55 0 54 -137 3 -138 3 -3 258 -2
257 -55 0 -55 0 0 -315z"/>
<path d="M1572 684 c-74 -37 -112 -102 -112 -195 0 -50 6 -77 23 -110 60 -113
235 -144 345 -62 l34 25 -33 34 -32 34 -32 -20 c-62 -39 -157 -22 -186 32 -18
33 3 38 157 38 162 0 159 -1 143 87 -25 134 -177 202 -307 137z m159 -87 c19
-12 35 -33 37 -45 3 -21 1 -22 -92 -22 -52 0 -97 4 -100 9 -8 12 32 61 58 71
35 15 62 11 97 -13z"/>
<path d="M2087 697 c-188 -59 -198 -335 -15 -411 65 -28 152 -15 187 27 16 20
31 13 31 -14 0 -16 7 -19 50 -19 l50 0 0 210 0 210 -50 0 c-43 0 -50 -3 -50
-19 0 -29 -15 -33 -35 -11 -19 20 -75 40 -110 39 -11 0 -37 -6 -58 -12z m133
-102 c42 -22 60 -53 60 -106 0 -120 -147 -159 -211 -56 -60 96 50 214 151 162z"/>
<path d="M2597 697 c-170 -55 -205 -289 -59 -391 57 -40 143 -48 201 -18 45
24 54 18 45 -26 -17 -87 -112 -116 -213 -66 -57 29 -58 29 -93 -34 -11 -21
-10 -26 12 -43 92 -70 281 -61 352 18 41 45 49 88 55 303 3 114 3 219 -1 234
-6 23 -11 26 -52 26 -37 0 -47 -4 -51 -20 -7 -25 -17 -25 -52 1 -35 26 -94 32
-144 16z m133 -102 c82 -42 78 -170 -6 -210 -40 -19 -58 -19 -94 0 -65 34 -89
105 -54 164 33 57 97 75 154 46z"/>
<path d="M3565 697 c-135 -53 -182 -214 -99 -340 65 -99 252 -115 347 -30 17
16 16 18 -14 50 l-32 33 -34 -21 c-40 -25 -114 -27 -148 -5 -28 19 -49 52 -40
66 4 6 69 10 156 10 l149 0 0 48 c0 54 -26 117 -61 149 -54 49 -154 67 -224
40z m136 -100 c19 -12 35 -33 37 -45 3 -21 1 -22 -92 -22 -57 0 -97 4 -101 11
-4 6 4 22 16 36 45 48 89 54 140 20z"/>
<path d="M2962 553 c3 -135 5 -152 27 -191 73 -127 302 -120 362 11 15 35 19
66 19 185 l0 142 -55 0 -55 0 0 -135 c0 -130 -1 -137 -24 -160 -32 -32 -69
-40 -107 -25 -49 21 -59 53 -59 195 l0 125 -56 0 -56 0 4 -147z"/>
</g>
</svg>
