<?xml version="1.0" standalone="no"?>
<!DOCTYPE svg PUBLIC "-//W3C//DTD SVG 20010904//EN"
 "http://www.w3.org/TR/2001/REC-SVG-20010904/DTD/svg10.dtd">
<svg version="1.0" xmlns="http://www.w3.org/2000/svg"
 width="279.000000pt" height="279.000000pt" viewBox="0 0 279.000000 279.000000"
 preserveAspectRatio="xMidYMid meet">

<g transform="translate(0.000000,279.000000) scale(0.100000,-0.100000)"
fill="#C89B3C" stroke="none">
<path d="M670 2583 c-80 -75 -188 -178 -241 -228 l-96 -91 -17 -109 c-95 -610
90 -1174 543 -1648 129 -135 314 -286 474 -386 l67 -43 78 48 c194 122 450
346 589 519 245 304 388 630 432 985 21 163 12 402 -21 573 l-11 58 -244 230
c-172 162 -249 229 -260 225 -45 -18 -258 -70 -332 -82 -115 -19 -365 -18
-477 1 -75 13 -278 63 -325 79 -8 3 -72 -49 -159 -131z m917 -316 c29 -11 51
-23 48 -27 -2 -3 -28 -12 -58 -19 l-54 -12 -9 -67 -9 -67 -35 53 c-38 57 -34
56 -129 36 l-34 -7 36 48 c20 26 37 52 37 56 0 5 -13 30 -30 55 -16 26 -28 49
-26 51 2 2 29 -6 60 -18 l58 -22 41 48 42 49 5 -68 5 -69 52 -20z m-472 99
c28 -9 59 -22 70 -31 19 -15 18 -15 -10 -8 -16 5 -61 8 -100 8 -122 -1 -223
-64 -282 -178 -24 -45 -28 -63 -28 -142 0 -78 4 -97 28 -147 55 -113 163 -179
292 -179 130 0 236 66 296 185 l30 61 -5 -50 c-15 -125 -109 -251 -235 -313
-73 -36 -77 -37 -191 -37 -111 0 -118 1 -184 34 -266 131 -327 467 -125 686
47 51 144 105 219 122 64 15 154 10 225 -11z m1315 -243 c76 -440 -18 -886
-267 -1263 -175 -265 -459 -537 -716 -685 l-47 -27 -77 48 c-288 179 -556 449
-728 732 -21 34 -35 65 -32 68 10 10 1842 1193 1848 1193 4 1 12 -29 19 -66z"/>
<path d="M2170 1800 c-11 -11 -20 -32 -19 -47 0 -28 0 -28 10 -5 6 17 15 22
31 20 20 -3 23 -8 21 -46 -2 -37 0 -40 13 -28 19 20 41 10 59 -25 20 -38 11
-57 -27 -55 -34 1 -50 -20 -23 -30 40 -16 95 45 95 104 0 36 -16 52 -52 52
-25 0 -28 3 -22 25 13 51 -46 75 -86 35z"/>
<path d="M2031 1704 c-12 -15 -21 -38 -21 -53 l1 -26 15 28 c16 30 35 35 54
11 11 -12 11 -24 -3 -67 -9 -28 -15 -52 -14 -53 1 -2 26 13 55 32 43 29 52 40
52 65 0 16 -4 29 -10 29 -5 0 -10 -7 -10 -15 0 -8 -9 -19 -19 -25 -27 -14 -36
-13 -22 4 17 20 17 76 0 87 -26 16 -57 9 -78 -17z"/>
<path d="M1869 1601 c-36 -36 -37 -73 -4 -106 28 -29 42 -31 73 -9 27 19 29
38 3 29 -13 -4 -25 2 -40 21 -25 32 -27 60 -5 68 23 9 21 10 54 -36 36 -49 39
-96 11 -151 -25 -50 -8 -47 26 4 19 29 28 57 31 97 4 50 1 60 -22 85 -35 38
-87 37 -127 -2z"/>
<path d="M1726 1507 c-48 -31 -49 -32 -23 -35 39 -5 86 -75 69 -103 -17 -27
-6 -24 52 14 44 28 48 32 28 35 -29 4 -76 74 -69 102 7 26 2 25 -57 -13z"/>
<path d="M1359 1310 c-36 -4 -52 -12 -72 -36 l-27 -31 75 -33 75 -33 58 26
c31 13 62 26 69 28 7 3 -2 19 -22 40 -36 40 -70 48 -156 39z"/>
<path d="M1070 1126 c-28 -9 -41 -23 -62 -66 -39 -80 -45 -123 -19 -149 12
-12 25 -21 29 -21 4 0 25 23 45 50 21 28 41 50 45 50 4 0 7 34 8 75 0 41 -2
75 -5 74 -3 0 -22 -6 -41 -13z"/>
<path d="M1713 1056 c5 -64 3 -75 -11 -79 -13 -4 -13 -5 3 -6 13 -1 33 -21 55
-56 19 -30 38 -55 41 -55 3 0 16 11 29 25 22 23 23 28 11 77 -21 93 -41 127
-90 149 l-44 19 6 -74z"/>
<path d="M1350 998 c-30 -22 -61 -43 -67 -47 -10 -5 -6 -27 14 -89 l27 -82 82
0 82 0 27 81 c15 44 25 81 24 83 -2 1 -22 16 -44 33 -89 67 -83 66 -145 21z"/>
<path d="M1071 625 c2 -63 18 -82 113 -139 l59 -35 26 22 27 22 -38 65 c-21
35 -39 68 -40 71 -2 4 -36 17 -76 28 l-72 20 1 -54z"/>
<path d="M1653 641 c-61 -15 -61 -16 -98 -83 l-36 -68 -47 -2 -47 -1 45 -4
c25 -3 53 -11 62 -20 28 -25 99 8 176 81 35 33 42 46 42 78 0 44 -1 44 -97 19z"/>
</g>
</svg>
