<?xml version="1.0" standalone="no"?>
<!DOCTYPE svg PUBLIC "-//W3C//DTD SVG 20010904//EN"
 "http://www.w3.org/TR/2001/REC-SVG-20010904/DTD/svg10.dtd">
<svg version="1.0" xmlns="http://www.w3.org/2000/svg"
 width="229.000000pt" height="229.000000pt" viewBox="0 0 229.000000 229.000000"
 preserveAspectRatio="xMidYMid meet">

<g transform="translate(0.000000,229.000000) scale(0.100000,-0.100000)"
fill="#C89B3C" stroke="none">
<path d="M960 2154 c-85 -35 -159 -65 -163 -67 -10 -3 48 -240 95 -391 89
-287 222 -568 366 -768 30 -43 56 -78 58 -78 1 0 -14 37 -35 83 -82 177 -133
378 -162 628 -12 106 -7 558 7 627 3 17 2 31 -2 31 -5 -1 -79 -30 -164 -65z"/>
<path d="M1191 2133 c-24 -155 -32 -353 -21 -507 11 -150 38 -330 64 -421 14
-50 14 -49 15 86 2 260 49 460 187 784 4 9 -205 135 -225 135 -5 0 -14 -35
-20 -77z"/>
<path d="M991 1140 c-1 -118 -11 -212 -36 -351 -8 -40 -13 -38 106 -54 l47 -7
-5 49 c-11 120 -47 301 -78 395 l-33 103 -1 -135z"/>
<path d="M1110 1044 c0 -5 12 -63 25 -129 14 -66 25 -132 25 -147 0 -15 4 -30
10 -33 9 -6 127 12 143 22 4 2 -7 21 -24 41 -18 20 -63 84 -102 142 -76 116
-77 117 -77 104z"/>
<path d="M927 529 c-43 -10 -118 -39 -165 -64 -102 -52 -206 -137 -190 -153 7
-7 29 5 73 42 73 60 183 117 275 142 102 29 302 26 400 -4 102 -32 172 -70
257 -136 44 -34 74 -52 78 -45 9 14 -18 43 -91 95 -182 130 -421 177 -637 123z"/>
<path d="M953 459 c-48 -11 -47 -10 -29 -96 18 -86 29 -96 89 -90 53 5 70 15
58 35 -6 11 -17 11 -44 4 -28 -8 -39 -7 -47 3 -15 18 -4 35 23 35 12 0 28 4
36 9 17 11 7 42 -11 37 -51 -16 -66 -15 -71 4 -5 20 -1 23 61 35 18 4 31 12
29 18 -5 16 -42 18 -94 6z"/>
<path d="M1233 453 c-13 -5 -53 -121 -53 -154 0 -30 30 -22 42 12 10 30 12 31
53 25 33 -5 44 -3 48 9 5 11 -5 18 -38 26 -47 12 -50 15 -36 38 8 12 16 13 49
3 51 -15 52 -15 52 6 0 27 -80 50 -117 35z"/>
<path d="M741 371 c-11 -7 -6 -20 27 -61 44 -55 50 -78 30 -98 -24 -24 -53
-12 -98 39 -39 44 -47 49 -58 36 -10 -12 -5 -24 33 -71 42 -51 50 -56 86 -56
29 0 47 7 64 25 38 37 33 76 -17 141 -46 58 -46 58 -67 45z"/>
<path d="M1421 286 c-76 -48 -82 -55 -64 -64 16 -9 29 -5 72 24 29 20 54 34
56 32 11 -11 -10 -48 -26 -48 -24 0 -33 -17 -15 -27 8 -4 16 -21 18 -37 6 -57
26 -39 52 47 45 148 36 156 -93 73z"/>
<path d="M999 226 c-66 -19 -161 -72 -199 -111 -28 -29 -31 -35 -17 -41 12 -4
31 6 58 31 51 46 124 80 206 95 111 22 249 -17 340 -95 44 -38 63 -44 63 -20
0 22 -111 100 -178 125 -71 28 -207 35 -273 16z"/>
</g>
</svg>
