<?xml version="1.0" standalone="no"?>
<!DOCTYPE svg PUBLIC "-//W3C//DTD SVG 20010904//EN"
 "http://www.w3.org/TR/2001/REC-SVG-20010904/DTD/svg10.dtd">
<svg version="1.0" xmlns="http://www.w3.org/2000/svg"
 width="1067.000000pt" height="1024.000000pt" viewBox="0 0 1067.000000 1024.000000"
 preserveAspectRatio="xMidYMid meet">

<g transform="translate(0.000000,1024.000000) scale(0.100000,-0.100000)"
fill="#C89B3C" stroke="none">
<path d="M5450 10219 c-120 -14 -306 -55 -430 -94 l-115 -37 -215 -3 c-189 -2
-412 -23 -441 -41 -4 -2 4 -17 18 -32 28 -29 123 -170 123 -182 0 -4 -44 -40
-97 -81 -100 -74 -360 -325 -382 -367 -12 -22 -11 -22 46 6 120 60 547 213
558 200 1 -2 27 -43 58 -93 30 -49 80 -123 110 -163 59 -80 190 -233 194 -228
2 1 16 50 33 108 37 134 78 237 141 359 80 152 71 145 229 163 147 17 429 35
580 39 l95 2 -110 49 c-123 54 -252 103 -365 137 -41 13 -79 26 -84 30 -20 17
220 165 346 214 l63 24 -140 -1 c-77 0 -174 -4 -215 -9z"/>
<path d="M6790 9729 c0 -60 -20 -173 -34 -186 -3 -3 -41 10 -85 30 -114 53
-322 122 -454 151 -107 24 -239 46 -245 41 -1 -1 21 -18 50 -37 139 -93 404
-323 516 -447 l63 -71 -44 -67 c-58 -91 -163 -227 -261 -342 l-81 -94 35 7
c245 49 512 86 627 86 l62 0 99 -147 c114 -171 206 -324 286 -473 l56 -105 0
126 c0 148 -13 289 -40 446 -11 62 -20 116 -20 122 0 24 248 -66 292 -106 26
-23 23 -12 -21 75 -85 168 -249 380 -383 492 -48 40 -74 72 -97 117 -69 140
-215 348 -295 422 l-26 24 0 -64z"/>
<path d="M3678 9667 c-312 -278 -562 -647 -696 -1027 -29 -84 -74 -257 -86
-335 -6 -36 -3 -32 38 43 50 92 148 238 199 297 l34 40 38 -75 c21 -41 61
-111 89 -155 l51 -80 7 100 c10 146 26 266 50 387 l21 108 106 94 c118 104
195 168 289 240 35 26 62 49 60 50 -7 6 -199 -15 -263 -28 -38 -8 -71 -13 -74
-11 -7 8 120 253 178 343 33 50 59 92 57 92 -2 0 -46 -37 -98 -83z"/>
<path d="M4870 9053 c-42 -150 -94 -478 -108 -686 l-7 -109 -155 -63 c-161
-65 -348 -146 -484 -210 l-80 -37 163 -69 c90 -38 245 -98 345 -134 249 -90
226 -77 226 -128 0 -108 62 -511 108 -707 l28 -115 103 175 c117 197 320 520
327 520 3 0 82 -20 177 -45 311 -81 724 -171 735 -161 2 3 -40 51 -95 108
-177 182 -475 527 -490 564 -3 8 30 62 73 121 87 121 346 466 418 557 25 33
44 61 42 63 -7 7 -489 -119 -691 -181 -115 -35 -213 -62 -217 -60 -14 9 -234
347 -321 492 l-86 144 -11 -39z"/>
<path d="M3298 8284 c-67 -114 -143 -275 -182 -384 l-34 -95 -92 -46 c-50 -25
-102 -57 -115 -70 l-24 -24 24 -58 c14 -33 49 -96 78 -140 l54 -82 6 -150 c3
-82 13 -189 22 -238 18 -98 59 -246 79 -285 13 -25 13 -24 26 29 30 126 143
375 164 361 6 -4 47 -34 91 -67 80 -60 321 -215 335 -215 4 0 -17 48 -45 108
-55 113 -135 324 -163 428 l-16 62 39 48 c58 72 327 344 411 416 40 34 72 63
71 64 -12 8 -417 -28 -583 -52 l-41 -6 -12 78 c-7 44 -19 147 -27 229 -8 83
-16 154 -17 159 -2 5 -24 -26 -49 -70z"/>
<path d="M7375 8035 c-100 -253 -160 -395 -217 -519 -38 -83 -80 -173 -91
-199 -15 -33 -29 -50 -47 -55 -34 -9 -553 -9 -664 1 l-88 7 63 -72 c112 -128
252 -268 339 -341 47 -39 89 -74 94 -79 5 -4 -7 -34 -29 -70 -72 -118 -207
-322 -251 -379 -24 -32 -44 -60 -44 -63 0 -6 120 27 220 61 101 34 283 121
371 178 l71 46 39 -27 c40 -28 99 -87 135 -139 l22 -29 29 59 c51 101 91 245
112 398 8 58 18 81 64 150 126 191 227 430 261 621 l8 40 -40 -50 c-45 -57
-141 -133 -216 -171 -58 -30 -66 -24 -66 54 0 68 -27 325 -49 478 -13 83 -20
114 -26 100z"/>
<path d="M3750 6796 c0 -22 127 -317 191 -444 l77 -153 -26 -10 c-111 -42
-179 -54 -324 -54 -142 0 -146 -1 -130 -19 51 -56 229 -159 367 -211 73 -27
267 -80 334 -90 39 -7 56 -19 150 -114 58 -58 141 -130 184 -159 82 -57 225
-128 275 -138 l30 -6 -23 63 c-21 59 -36 136 -49 250 l-5 46 202 6 c111 4 230
10 264 13 l62 7 -260 129 -259 129 0 52 c0 76 27 296 61 497 16 96 29 179 29
183 0 5 -27 -15 -61 -45 -122 -107 -257 -211 -381 -295 l-127 -86 -28 18 c-15
10 -86 62 -158 116 -117 88 -183 141 -344 277 -28 24 -51 41 -51 38z"/>
<path d="M6398 6213 c-55 -83 -196 -253 -297 -355 l-104 -108 -166 0 c-153 0
-350 11 -446 25 l-40 6 40 -35 c65 -58 196 -156 253 -188 28 -16 49 -34 46
-39 -11 -18 -189 -102 -274 -130 l-85 -28 85 -1 c47 0 142 7 210 15 400 50
783 198 1117 432 108 75 261 201 262 215 1 3 -34 -13 -77 -38 -43 -24 -127
-62 -186 -85 -116 -43 -303 -96 -311 -87 -3 3 -1 34 5 69 11 72 12 324 1 353
-6 16 -10 13 -33 -21z"/>
<path d="M4950 4725 c-588 -79 -1099 -322 -1545 -739 l-80 -74 39 -41 39 -40
96 91 c607 574 1406 822 2220 687 492 -82 933 -299 1324 -654 l119 -108 36 37
37 38 -95 90 c-386 365 -872 605 -1420 699 -162 28 -605 36 -770 14z"/>
<path d="M4795 4428 c-104 -22 -198 -47 -207 -56 -10 -8 -18 -25 -18 -38 0
-28 75 -401 95 -469 24 -84 80 -125 172 -125 46 0 308 45 321 55 7 6 -22 125
-30 125 -5 0 -60 -11 -124 -25 -137 -30 -175 -31 -197 -7 -18 20 -40 104 -29
113 4 4 70 19 147 34 77 16 143 31 147 34 7 6 -15 107 -25 117 -2 3 -68 -9
-146 -26 -78 -16 -145 -30 -150 -30 -7 0 -42 141 -37 148 2 1 77 17 167 35
162 32 164 32 161 57 -8 63 -23 100 -40 99 -9 0 -102 -19 -207 -41z"/>
<path d="M5726 4400 c-16 -5 -42 -22 -58 -37 -32 -31 -51 -88 -123 -367 -41
-162 -44 -181 -31 -201 15 -23 95 -50 107 -37 4 4 21 63 39 132 17 69 34 127
36 129 2 2 69 -13 149 -34 80 -20 147 -36 149 -34 12 13 34 114 26 119 -5 3
-73 21 -150 40 l-141 34 6 36 c9 46 26 81 47 94 16 10 95 -6 294 -60 19 -5 23
1 36 55 9 34 13 63 9 65 -3 2 -60 18 -126 35 -132 35 -224 46 -269 31z"/>
<path d="M3978 4114 c-23 -20 -44 -40 -46 -45 -2 -4 54 -79 124 -165 174 -216
190 -260 128 -341 -50 -66 -144 -91 -206 -55 -17 9 -91 91 -165 182 -75 91
-138 166 -142 168 -3 1 -28 -17 -55 -40 l-48 -43 144 -180 c174 -217 206 -240
328 -240 90 0 146 23 214 85 93 86 126 216 79 320 -19 43 -290 390 -304 390
-4 0 -27 -16 -51 -36z"/>
<path d="M6385 3818 c-165 -106 -299 -197 -298 -202 1 -5 28 -23 60 -41 l58
-33 205 134 c113 74 208 134 211 134 3 0 -7 -44 -23 -97 -40 -138 -35 -129
-61 -104 -13 11 -26 21 -30 21 -11 0 -107 -64 -107 -72 0 -4 27 -28 60 -54 33
-26 60 -49 60 -51 0 -2 -8 -31 -17 -64 l-17 -61 53 -51 c41 -39 55 -47 61 -36
7 13 181 623 193 677 8 33 -46 92 -82 92 -18 0 -126 -64 -326 -192z"/>
<path d="M5020 3606 c-333 -60 -613 -201 -859 -432 -45 -42 -81 -82 -81 -88 0
-7 13 -25 30 -41 l29 -28 100 95 c365 351 877 491 1376 376 283 -65 564 -227
754 -435 l62 -67 36 36 36 37 -94 93 c-126 126 -248 215 -399 292 -143 73
-233 106 -387 142 -95 23 -134 27 -318 30 -145 2 -233 -1 -285 -10z"/>
<path d="M511 2849 c-230 -45 -403 -195 -473 -409 -29 -90 -36 -263 -14 -351
56 -224 217 -390 431 -444 85 -21 235 -19 329 5 83 21 192 74 205 99 5 9 12
56 16 105 l7 90 -23 -17 c-49 -36 -186 -96 -247 -108 -82 -15 -150 -7 -229 30
-172 81 -276 287 -245 488 24 151 95 259 209 315 58 28 75 32 147 32 139 -1
233 -60 273 -173 14 -41 22 -51 41 -51 25 0 25 -1 6 277 l-6 83 -36 9 c-112
30 -294 39 -391 20z"/>
<path d="M10125 2783 c-174 -27 -290 -97 -339 -202 -15 -34 -21 -66 -21 -126
0 -71 3 -86 31 -135 48 -84 121 -129 302 -185 204 -64 229 -74 262 -102 83
-69 43 -194 -74 -228 -67 -20 -191 -19 -257 2 -80 26 -162 110 -186 192 -13
45 -23 61 -36 61 -16 0 -17 -12 -11 -172 5 -108 11 -176 18 -180 6 -4 52 -17
101 -29 73 -18 120 -23 245 -23 144 0 161 2 235 27 196 68 274 169 263 341 -7
111 -57 184 -159 237 -21 10 -120 44 -219 74 -193 57 -240 79 -258 120 -29 64
-6 127 60 165 39 22 54 25 153 25 91 0 118 -4 155 -21 60 -29 108 -78 137
-141 16 -36 30 -53 43 -53 17 0 17 10 13 153 -3 83 -7 153 -8 154 -1 2 -37 12
-81 24 -78 21 -296 34 -369 22z"/>
<path d="M7570 2765 c-246 -55 -410 -266 -410 -526 0 -384 310 -640 664 -549
104 26 169 63 242 135 105 103 154 230 154 397 0 313 -202 535 -504 553 -52 3
-104 -1 -146 -10z m205 -169 c127 -59 205 -224 205 -433 0 -146 -42 -241 -133
-301 -36 -24 -50 -27 -127 -27 -79 0 -91 3 -136 30 -64 40 -118 118 -151 219
-21 66 -26 101 -27 191 -1 125 10 172 57 241 66 98 200 133 312 80z"/>
<path d="M1240 2740 c0 -11 10 -20 30 -24 20 -4 34 -14 40 -31 6 -16 10 -201
10 -463 0 -474 -1 -484 -53 -490 -19 -2 -27 -9 -27 -23 0 -18 9 -19 195 -19
188 0 195 1 195 20 0 13 -7 20 -19 20 -47 0 -51 18 -51 236 l0 204 195 0 195
0 0 -208 c0 -220 -2 -232 -47 -232 -16 0 -23 -6 -23 -20 0 -19 7 -20 195 -20
181 0 195 1 195 18 0 12 -11 21 -32 27 l-33 10 -3 472 c-2 419 0 473 14 487 8
9 24 16 35 16 12 0 19 7 19 19 0 18 -11 19 -195 19 -179 0 -195 -2 -195 -18 0
-11 10 -20 29 -23 42 -9 51 -50 51 -234 l0 -153 -200 0 -200 0 0 178 c0 161 2
181 18 195 10 10 26 17 35 17 10 0 17 8 17 19 0 18 -11 19 -195 19 -179 0
-195 -2 -195 -18z"/>
<path d="M2850 2739 c0 -10 10 -19 24 -23 14 -3 27 -15 31 -25 4 -12 -56 -176
-164 -449 -93 -237 -177 -445 -186 -462 -9 -18 -30 -37 -46 -43 -16 -7 -29
-19 -29 -29 0 -15 16 -17 170 -17 161 0 170 1 170 20 0 13 -7 19 -23 19 -13 0
-32 9 -43 21 -18 20 -18 22 15 116 18 53 39 111 47 129 l14 34 159 0 159 0 30
-92 c52 -160 51 -190 -8 -203 -20 -4 -30 -13 -30 -25 0 -18 12 -19 205 -19
186 0 205 2 205 17 -1 9 -15 26 -33 37 -18 11 -39 36 -48 55 -9 19 -83 243
-165 496 l-148 462 -153 -1 c-138 0 -153 -2 -153 -18z m229 -482 c11 -40 23
-80 26 -89 7 -17 -2 -18 -109 -18 -64 0 -116 2 -116 5 0 2 20 57 44 122 24 65
51 143 60 173 10 30 20 62 23 70 3 8 16 -31 29 -88 13 -57 32 -135 43 -175z"/>
<path d="M3820 2738 c0 -10 6 -18 14 -18 8 0 24 -8 37 -19 l23 -18 -23 -449
c-24 -490 -25 -495 -84 -502 -18 -2 -27 -9 -27 -22 0 -17 12 -18 175 -18 166
-1 175 0 175 19 0 13 -7 19 -24 19 -13 0 -36 10 -51 21 l-27 22 7 336 c4 185
11 344 14 353 4 12 47 -88 120 -280 63 -163 132 -343 154 -400 l39 -103 71 3
70 3 135 399 c75 220 137 395 139 390 6 -23 43 -541 43 -616 0 -95 -8 -113
-60 -126 -19 -4 -36 -15 -38 -24 -3 -15 19 -17 207 -17 202 0 211 1 211 20 0
12 -7 19 -19 19 -10 0 -28 8 -39 18 -19 16 -23 47 -51 427 -17 226 -31 436
-31 468 0 56 1 59 30 70 17 6 30 19 30 28 0 14 -19 16 -169 16 l-169 1 -123
-362 c-67 -198 -125 -367 -129 -374 -3 -7 -69 154 -147 360 l-141 373 -171 1
c-159 0 -171 -1 -171 -18z"/>
<path d="M5370 2735 c0 -18 5 -25 19 -25 11 0 27 -7 35 -16 14 -14 16 -70 16
-470 0 -441 -1 -455 -20 -474 -11 -11 -27 -20 -35 -20 -8 0 -15 -9 -15 -19 0
-19 9 -20 210 -20 202 0 210 1 210 19 0 12 -7 20 -17 20 -10 0 -33 9 -50 20
l-33 20 0 414 c0 368 2 415 16 420 9 3 50 6 93 6 63 0 87 -5 128 -26 73 -36
96 -86 92 -193 -7 -141 -74 -203 -228 -208 -46 -1 -87 -5 -90 -9 -11 -11 40
-43 92 -59 71 -21 172 -19 250 5 49 15 80 33 121 71 71 65 97 130 97 243 0 69
-4 88 -31 143 -75 152 -181 183 -622 183 l-238 0 0 -25z"/>
<path d="M6510 2739 c0 -12 7 -19 18 -19 11 0 26 -8 35 -18 15 -17 17 -65 17
-480 0 -405 -2 -462 -16 -476 -8 -9 -24 -16 -35 -16 -12 0 -19 -7 -19 -19 0
-19 9 -20 195 -20 184 0 195 1 195 19 0 13 -8 20 -27 22 -52 6 -53 16 -53 490
0 262 4 447 10 463 6 17 20 27 40 31 19 4 30 13 30 24 0 16 -17 17 -195 17
-183 0 -195 -1 -195 -18z"/>
<path d="M8480 2740 c0 -13 7 -20 19 -20 11 0 27 -7 35 -16 14 -14 16 -71 16
-479 0 -408 -2 -465 -16 -479 -8 -9 -24 -16 -35 -16 -12 0 -19 -7 -19 -19 0
-18 9 -19 155 -19 145 0 155 1 155 19 0 14 -7 19 -25 19 -14 0 -34 9 -45 20
-19 19 -20 33 -20 395 0 206 2 375 4 375 2 0 124 -187 271 -415 l267 -415 89
0 89 0 0 498 c0 471 1 500 18 515 10 10 26 17 35 17 10 0 17 8 17 19 0 18 -10
19 -155 19 -146 0 -155 -1 -155 -19 0 -13 7 -19 23 -19 13 0 33 -9 45 -20 22
-21 22 -24 22 -343 0 -204 -4 -317 -10 -307 -5 8 -105 170 -223 360 l-213 345
-172 2 c-166 2 -172 2 -172 -17z"/>
<path d="M5590 1172 c-128 -43 -204 -106 -253 -210 -107 -228 -20 -502 191
-600 49 -23 70 -27 147 -27 97 1 153 19 221 70 l33 25 12 -40 c11 -38 14 -40
51 -40 l38 0 0 158 c0 141 2 161 18 175 10 10 26 17 35 17 10 0 17 8 17 18 0
15 -15 17 -165 17 -143 0 -165 -2 -165 -16 0 -10 14 -19 38 -25 l37 -9 3 -81
c2 -69 0 -84 -18 -107 -41 -51 -147 -59 -217 -16 -107 66 -164 280 -116 430
22 67 90 139 149 157 71 21 153 15 212 -14 53 -26 102 -82 102 -116 0 -11 8
-18 20 -18 19 0 20 6 19 88 -1 123 -6 133 -64 156 -74 28 -270 33 -345 8z"/>
<path d="M2710 1163 c0 -7 5 -13 10 -13 6 0 19 -9 30 -20 19 -19 20 -33 20
-363 0 -294 -2 -346 -16 -365 -8 -12 -22 -22 -30 -22 -8 0 -14 -7 -14 -15 0
-13 42 -15 314 -15 l313 0 7 78 c3 42 9 96 12 120 6 38 5 42 -15 42 -13 0 -21
-6 -21 -16 0 -28 -41 -91 -67 -103 -14 -6 -83 -11 -163 -11 l-140 0 0 318 c0
344 1 353 55 366 14 4 25 12 25 19 0 9 -39 12 -160 12 -122 0 -160 -3 -160
-12z"/>
<path d="M3517 1173 c-14 -13 -7 -33 11 -33 41 0 42 -10 42 -383 l0 -359 -30
-11 c-16 -6 -30 -17 -30 -24 0 -10 69 -13 335 -13 l335 0 0 38 c0 20 3 75 7
121 6 76 5 83 -11 80 -11 -3 -26 -24 -37 -54 -10 -27 -27 -56 -36 -62 -12 -9
-65 -13 -180 -13 l-163 0 0 130 0 130 105 0 106 0 17 -30 c33 -58 42 -39 42
90 0 99 -3 120 -15 120 -8 0 -17 -11 -21 -25 -9 -38 -32 -45 -138 -45 l-96 0
0 126 0 126 158 -4 c174 -3 186 -7 200 -62 5 -18 16 -32 27 -35 16 -3 18 2 12
59 -4 35 -7 80 -7 101 l0 39 -313 0 c-173 0 -317 -3 -320 -7z"/>
<path d="M4630 1164 c0 -7 9 -15 19 -19 11 -3 22 -12 24 -19 3 -8 -55 -169
-129 -358 -105 -268 -141 -349 -164 -370 -17 -15 -30 -32 -30 -38 0 -6 49 -10
130 -10 99 0 130 3 130 13 0 7 -13 18 -30 24 -39 15 -39 36 3 144 l33 84 123
0 123 0 24 -75 c13 -41 24 -90 24 -108 0 -28 -5 -35 -30 -43 -16 -6 -30 -17
-30 -25 0 -11 29 -14 160 -14 174 0 183 4 130 49 -25 22 -41 61 -106 261 -41
129 -96 298 -121 376 l-46 141 -119 -1 c-86 0 -118 -3 -118 -12z m158 -294
c17 -69 34 -133 37 -142 7 -16 -1 -18 -82 -18 l-90 0 51 144 c28 79 52 143 52
143 1 -1 16 -58 32 -127z"/>
<path d="M6290 1163 c0 -7 11 -15 25 -19 15 -4 27 -15 30 -28 2 -11 6 -149 7
-306 3 -276 4 -287 26 -333 47 -94 127 -134 287 -144 112 -6 223 15 280 54 27
19 50 48 70 88 l30 60 3 280 c1 154 5 290 7 301 3 13 15 24 30 28 14 4 25 12
25 19 0 9 -40 12 -160 12 -112 0 -160 -3 -160 -11 0 -6 15 -15 33 -20 l32 -10
3 -292 c3 -320 -1 -344 -54 -379 -40 -26 -168 -26 -208 0 -52 35 -56 60 -56
369 0 156 4 288 8 295 4 6 20 15 35 18 15 4 27 12 27 19 0 8 -46 11 -160 11
-120 0 -160 -3 -160 -12z"/>
<path d="M7320 1161 c0 -12 9 -21 24 -25 13 -3 26 -16 30 -28 3 -13 6 -172 6
-353 0 -283 -2 -334 -16 -353 -8 -12 -22 -22 -30 -22 -8 0 -14 -7 -14 -15 0
-13 43 -15 330 -15 l329 0 5 33 c3 17 7 71 9 120 4 80 3 87 -14 87 -13 0 -21
-11 -29 -39 -5 -21 -19 -50 -31 -65 l-20 -26 -170 0 -170 0 3 133 3 132 55 3
c30 2 79 0 109 -3 47 -6 55 -10 64 -36 6 -16 18 -29 27 -29 13 0 15 19 15 120
0 101 -2 120 -15 120 -9 0 -21 -13 -27 -30 l-11 -30 -111 0 -111 0 0 121 0
120 159 -3 c175 -3 193 -9 206 -69 4 -16 13 -29 21 -29 12 0 14 17 12 98 l-3
97 -317 3 c-307 2 -318 2 -318 -17z"/>
<path d="M8141 297 c-19 -7 -48 -29 -64 -50 -59 -72 -32 -183 52 -222 50 -22
117 -16 159 14 39 27 67 98 58 146 -9 47 -59 102 -104 115 -46 12 -58 12 -101
-3z m134 -49 c43 -40 54 -88 32 -141 -30 -70 -111 -96 -175 -57 -70 43 -78
136 -17 197 28 28 40 33 79 33 38 0 52 -6 81 -32z"/>
<path d="M8140 155 c0 -84 16 -119 22 -48 4 50 22 52 54 4 15 -23 33 -41 41
-41 10 0 6 11 -12 38 -25 36 -25 37 -5 46 14 6 20 19 20 41 0 38 -12 45 -76
45 l-44 0 0 -85z m95 40 c0 -16 -8 -21 -37 -23 -35 -3 -38 -1 -38 23 0 24 3
26 38 23 29 -2 37 -7 37 -23z"/>
</g>
</svg>
